<svg width="43" height="36" viewBox="0 0 43 36" fill="none" xmlns="http://www.w3.org/2000/svg">
<path d="M33.0645 0.193359C35.9648 0.193359 38.2852 1.25684 40.0254 3.38379C41.7012 5.5752 42.5391 8.15332 42.5391 11.1182C42.5391 13.5674 42.0879 15.8555 41.1855 17.9824C40.2832 20.1094 39.1553 22.043 37.8018 23.7832C36.3838 25.5234 34.9014 27.0381 33.3545 28.3271C31.7432 29.6807 30.2607 30.8086 28.9072 31.7109C27.5537 32.6777 26.458 33.3867 25.6201 33.8379C24.7178 34.2891 24.2988 34.5146 24.3633 34.5146L22.1396 31.5176C22.7197 31.2598 23.4932 30.7441 24.46 29.9707C25.4268 29.2617 26.3936 28.3916 27.3604 27.3604C28.2627 26.3291 29.0684 25.2012 29.7773 23.9766C30.4863 22.8164 30.8408 21.6885 30.8408 20.5928C30.8408 19.9482 30.4541 19.3037 29.6807 18.6592C28.9072 18.0791 28.0693 17.3701 27.167 16.5322C26.2647 15.7588 25.4268 14.792 24.6533 13.6318C23.8799 12.5361 23.4932 11.1826 23.4932 9.57129C23.4932 8.15332 23.7832 6.86426 24.3633 5.7041C24.8789 4.54394 25.5879 3.54492 26.4902 2.70703C27.3281 1.93359 28.3272 1.32129 29.4873 0.870116C30.6475 0.418944 31.8398 0.193358 33.0645 0.193359ZM9.28125 -2.90749e-06C10.7637 -2.77789e-06 12.1172 0.322263 13.3418 0.966794C14.5664 1.61133 15.6299 2.48144 16.5322 3.57715C17.4346 4.67285 18.1436 5.92969 18.6592 7.34765C19.1104 8.83008 19.3359 10.4092 19.3359 12.085C19.3359 15.4365 18.627 18.5303 17.209 21.3662C15.7266 24.2666 14.1152 26.748 12.375 28.8105C10.3125 31.2598 7.95996 33.4834 5.31738 35.4814L2.51367 32.8711C3.09375 32.4844 3.80273 31.8721 4.64063 31.0342C5.41406 30.1963 6.15527 29.1973 6.86426 28.0371C7.50879 26.9414 8.08887 25.7812 8.60449 24.5566C9.05567 23.332 9.28125 22.1396 9.28125 20.9795C9.28125 20.2061 8.79785 19.5615 7.83106 19.0459C6.86426 18.5303 5.80078 17.8857 4.64063 17.1123C3.48047 16.3389 2.41699 15.3398 1.4502 14.1152C0.4834 12.9551 2.113e-06 11.3115 2.29895e-06 9.18457C2.41164e-06 7.8955 0.257815 6.70312 0.77344 5.60742C1.28907 4.51172 1.99805 3.54492 2.90039 2.70703C3.73828 1.86914 4.73731 1.19238 5.89746 0.676755C6.99317 0.225583 8.1211 -3.00891e-06 9.28125 -2.90749e-06Z" fill="white"/>
</svg>
